<?xml version="1.0" standalone="no"?>
<!DOCTYPE svg PUBLIC "-//W3C//DTD SVG 20010904//EN"
 "http://www.w3.org/TR/2001/REC-SVG-20010904/DTD/svg10.dtd">
<svg version="1.0" xmlns="http://www.w3.org/2000/svg"
 width="543.000000pt" height="543.000000pt" viewBox="0 0 543.000000 543.000000"
 preserveAspectRatio="xMidYMid meet">
<metadata>
Created by potrace 1.11, written by Peter Selinger 2001-2013
</metadata>
<g transform="translate(0.000000,543.000000) scale(0.100000,-0.100000)"
fill="#000000" stroke="none">
<path d="M562 5413 c-145 -24 -299 -112 -392 -224 -63 -76 -94 -128 -128 -220
l-27 -74 -3 -2150 c-2 -2114 -2 -2151 18 -2228 64 -255 263 -444 524 -497 86
-18 4235 -18 4321 -1 228 47 415 199 499 406 54 133 52 47 50 2300 0 1150 -4
2110 -8 2135 -33 208 -170 394 -360 489 -161 81 43 75 -2318 75 -1559 1 -2125
-2 -2176 -11z"/>
</g>
</svg>
